<?xml version="1.0" encoding="UTF-8"?>
<svg id="Layer_1" data-name="Layer 1" xmlns="http://www.w3.org/2000/svg" viewBox="0 0 1080 1080">
  <defs>
    <style>
      .cls-1 {
        fill: #fff;
        stroke-width: 0px;
      }
    </style>
  </defs>
  <path class="cls-1" d="M743.03,718.22h-5.76c-61.6,0-123.19,0-184.79,0-16,0-32,0-48,0-6.6,0-6.8-.18-6.78-6.67.07-24,.17-48,.27-71.99,0-.79.07-1.59.23-2.37.13-.63.5-1.23,1.2-1.37,2.5-.5,4.99-1.17,7.57-.48,2.08.56,2.69,1.2,2.72,3.31.04,3.36,0,6.72-.01,10.08-.02,16.8-.05,33.6-.07,50.4,0,1.28-.05,2.57.07,3.84.22,2.36,1.24,3.39,3.69,3.58,1.75.14,3.52.08,5.28.08,107.68-.07,215.35-.16,323.03-.21,41.6-.02,83.2.06,124.8.08,2.08,0,4.17,0,6.22-.28,2.67-.37,3.62-1.4,3.89-4.06.23-2.22.26-4.47.26-6.71-.02-19.04-.1-38.08-.1-57.12-.02-59.04-.02-118.08,0-177.11,0-14.24.18-28.48.26-42.71,0-1.43-.02-2.88-.22-4.3-.21-1.5-1.08-2.28-2.55-2.42-1.27-.13-2.56-.11-3.83-.11-116.64.03-233.27.07-349.91.11-33.76.01-67.52.03-101.28.04-1.6,0-3.21-.05-4.8.08-3.46.29-4.53,1.36-4.76,4.75-.1,1.43-.06,2.88-.06,4.32-.02,18.24-.02,36.48-.05,54.72,0,1.59-.05,3.2-.3,4.77-.22,1.36-1.17,2.24-2.59,2.49-2.24.38-4.47.22-6.67-.26-1.03-.22-1.65-1-1.79-2.02-.19-1.42-.37-2.86-.37-4.29.02-22.88.06-45.76.11-68.64,0-1.44.04-2.88.18-4.31.22-2.15.9-2.86,2.96-3.05,1.43-.13,2.88-.11,4.32-.11,8,0,16,.03,24,.05.8,0,1.6.04,2.4.02,3.71-.09,4.44-.72,4.49-4.56.1-8.8.09-17.6.12-26.4,0-1.44-.03-2.89.09-4.32.18-2.09.96-2.88,2.95-3.08.95-.09,1.92-.07,2.88-.07,44.8,0,89.6,0,134.4,0,56.32.01,112.64.04,168.95.04,27.84,0,55.68-.03,83.52-.11,29.92-.08,59.84-.24,89.75-.35,1.76,0,3.53,0,5.27.2,1.97.23,2.76,1.12,2.97,3.15.15,1.43.14,2.87.14,4.31,0,11.36-.04,22.72-.04,34.08.01,56.16.02,112.32.05,168.47.01,27.04.04,54.08.08,81.12.01,6.08.14,12.16.21,18.24,0,.64.06,1.28.07,1.92.04,5.32-.74,6.09-6.08,6.08-8.8-.02-17.6-.04-26.4-.05-5.74,0-6.16.46-6.13,6.36.04,8.96.05,17.92.08,26.87,0,.32.02.64,0,.96-.14,4.14-.89,4.95-5.21,4.97-8.64.05-17.28-.02-25.92-.02-70.08-.05-140.16-.09-210.23-.14-1.6,0-3.2,0-4.79,0,0,.06,0,.13,0,.19ZM781.45,372.89c0-.06,0-.13,0-.19-1.6,0-3.2,0-4.8,0-41.11-.02-82.22-.04-123.34-.07-32.95-.03-65.91-.07-98.86-.09-1.6,0-3.2.03-4.79.16-1.06.09-1.77.79-1.94,1.83-.16.94-.15,1.91-.14,2.86.04,5.6.1,11.19.17,16.79.01.96.02,1.92.09,2.87.12,1.66,1.12,2.65,2.66,2.98,1.08.24,2.22.23,3.34.24,3.04.01,6.08-.04,9.12-.04,41.75,0,83.5,0,125.26,0,47.03,0,94.06,0,141.09-.01,51.03-.02,102.06-.07,153.09-.1,1.28,0,2.56.03,3.83.2,1.51.2,2.33.99,2.49,2.48.18,1.74.19,3.51.19,5.27.05,30.87.09,61.75.13,92.62.06,42.87.14,85.74.19,128.61.01,10.4-.08,20.79-.1,31.19,0,1.44,0,2.89.2,4.31.29,2.15,1.33,3.27,3.43,3.31,6.56.12,13.11.08,19.67.11.16,0,.32-.02.48-.04,1.41-.23,2.41-1.02,2.58-2.43.19-1.58.2-3.19.19-4.78-.24-45.11-.54-90.22-.74-135.33-.22-48.15.42-96.3.77-144.44.01-1.92.05-3.84-.06-5.76-.09-1.51-.89-2.31-2.4-2.52-.94-.13-1.91-.13-2.87-.13-3.84.02-7.68.11-11.52.11-70.39,0-140.77,0-211.16,0h-6.24Z"/>
  <path class="cls-1" d="M517.29,529.81c-1.97,1.48-2.27,3.1-2.79,4.57-7.65,21.53-15.27,43.08-22.91,64.62-.48,1.35-.93,2.73-1.55,4.02-.91,1.88-2.46,2.94-4.59,2.91-4.96-.06-9.91-.15-14.86-.27-1.94-.04-3.35-1.03-4.18-2.74-.63-1.29-1.15-2.63-1.64-3.98-5.74-15.94-11.49-31.87-17.17-47.83-2.2-6.17-5.01-12.11-6.7-18.46-.12-.44-.4-.87-.71-1.21-.17-.18-.55-.2-.84-.24-.4-.06-.61.15-.64.56-.07,1.11-.21,2.22-.21,3.33,0,19.83,0,39.66.04,59.49.01,5.95.08,5.95,6.08,6.21.48.02.96.03,1.43.1,1.83.28,2.99,1.28,3.03,3.14.1,4.79.06,9.59-.04,14.39-.04,1.79-.92,2.56-2.69,2.78-.95.11-1.91.13-2.87.13-12.47.1-24.95.18-37.42.27-.48,0-.96.04-1.44,0-2.58-.21-3.46-.97-3.49-3.56-.07-4.64.04-9.27.08-13.91,0-.16.01-.32.03-.48.23-1.89.84-2.59,2.66-2.79,1.59-.17,3.2-.11,4.78-.33,2.26-.31,3.03-1.18,3.25-3.44.11-1.11.07-2.24.08-3.36.13-14.07.3-28.15.36-42.22.03-7.84-.14-15.67-.22-23.51,0-.64-.01-1.28-.06-1.92-.25-3.05-1.1-3.8-4.29-3.78-1.28,0-2.56.17-3.83.1-1.54-.08-2.31-.84-2.56-2.35-.13-.79-.2-1.59-.2-2.39-.01-4-.07-8,.04-11.99.09-3.38.92-4.11,4.36-4.3.64-.03,1.28-.01,1.92-.02,12.95-.08,25.91-.18,38.86-.25,5.12-.03,5.16-.03,6.91,4.75,7.34,19.95,14.65,39.91,21.98,59.86.61,1.65,1.3,3.26,2,4.87.24.56,1.17.56,1.63.12.96-.94,1.35-2.16,1.78-3.36,5.73-15.94,11.44-31.88,17.16-47.83,1.4-3.91,2.82-7.82,4.24-11.72.33-.9.66-1.8,1.02-2.69,1.01-2.46,2.81-3.81,5.52-3.85.96-.01,1.92-.02,2.88-.02,12.15-.02,24.31-.05,36.46-.07.8,0,1.6-.03,2.4-.01,4.49.1,5.44,1.04,5.32,5.36-.11,3.68-.2,7.35-.4,11.02-.17,3.08-1,3.92-4.03,4.28-1.43.17-2.88.12-4.3.33-1.68.25-2.53,1.13-2.76,2.83-.17,1.26-.18,2.55-.19,3.83-.01,21.91-.02,43.82,0,65.73,0,5.66.48,6.09,6.38,6.32.64.03,1.28.02,1.92.09,1.84.22,2.49.82,2.82,2.68.14.78.21,1.59.23,2.38.12,4,.27,7.99.28,11.99,0,2.46-1,3.47-3.43,3.7-.95.09-1.92.03-2.88.02-11.67-.07-23.35-.13-35.02-.22-1.43-.01-2.88-.05-4.3-.27-1.64-.25-2.49-1.23-2.76-2.88-.1-.63-.1-1.27-.1-1.91,0-3.68-.02-7.36.06-11.03.07-3.65,1-4.56,4.53-4.62,1.12-.02,2.24.08,3.35,0,1.56-.12,2.31-.89,2.45-2.41.07-.79.05-1.6.05-2.4-.02-21.27-.04-42.54-.07-63.81,0-.62-.1-1.23-.2-2.38Z"/>
  <path class="cls-1" d="M252.48,557.76c0-13.43,0-26.86,0-40.29,0-.64.03-1.28-.02-1.92-.21-2.59-.98-3.2-3.74-3.08-1.75.08-3.51.2-5.25.14-1.26-.05-1.98-.94-2.26-2.14-.11-.46-.14-.95-.14-1.43.02-3.52-.01-7.04.1-10.55.08-2.43,1.11-3.46,3.47-3.76.79-.1,1.6-.08,2.39-.08,8.31-.06,16.63-.14,24.94-.18,5.31-.03,5.59.27,5.58,5.76,0,10.87-.06,21.74-.03,32.61,0,1.32-.75,3.08.99,3.83,1.37.58,2.36-.67,3.37-1.39,10.47-7.41,21.97-9.07,34.26-6.07,10.04,2.45,17.8,8.17,22.29,17.46,9.7,20.03,10.07,40.02-1.62,59.54-6.42,10.73-16.18,16.01-28.45,16.9-7.89.57-15.23-1.21-21.94-5.49-2.29-1.46-4.63-2.84-6.99-4.19-1.14-.65-1.87-.26-1.98.97-.12,1.27-.11,2.56-.29,3.82-.25,1.76-1.29,2.92-3.04,3.27-1.09.22-2.21.36-3.33.36-7.99.03-15.99.03-23.98.01-.95,0-1.94-.05-2.84-.31-1.68-.47-2.88-1.61-2.88-3.41,0-3.99.04-8,.31-11.98.16-2.3,1.62-3.15,4.09-2.83,1.11.15,2.2.46,3.31.53,2.1.14,3.34-.85,3.62-2.95.17-1.26.11-2.55.11-3.83,0-13.11,0-26.22,0-39.33h-.05ZM319.79,575.32c.06-5.19-1.1-10.43-3.75-15.31-2.41-4.44-6.11-7.31-10.85-8.86-3.38-1.1-6.88-1.41-10.41-1-9.18,1.07-15.17,6.73-16.66,15.84-.93,5.7-.82,11.48-.43,17.2.38,5.61,2.8,10.44,7.03,14.26,2.81,2.53,6.07,4.13,9.85,4.48,8.63.81,17.86-4.24,21.84-11.95,2.31-4.48,3.36-9.28,3.38-14.66Z"/>
  <path class="cls-1" d="M848.89,579.37c0-5.92-.27-11.85.05-17.75.77-14.22.03-28.44.46-42.66.03-1.12.08-2.25-.04-3.35-.27-2.58-1.16-3.3-3.75-3.16-1.59.08-3.19.29-4.78.25-2.09-.05-3.09-.84-3.16-2.83-.13-4.15-.11-8.31.01-12.46.05-1.7,1.07-2.49,2.82-2.69.63-.08,1.28-.07,1.92-.07,8.95-.08,17.91-.19,26.86-.23,4.12-.02,4.47.27,4.56,4.26.14,6.23.17,12.47.18,18.7,0,5.59-.08,11.18-.11,16.77,0,.31.05.63.1.94.12.73,1.21,1.43,1.82,1.1.84-.44,1.66-.95,2.42-1.52,10.05-7.58,21.07-8.56,32.73-4.72,8.55,2.82,14.48,8.56,17.93,16.85,1.61,3.85,2.52,7.9,3.16,12.02.77,4.91,1.02,9.85,1.05,14.82.05,7.67.14,15.35.21,23.02,0,.48-.01.96,0,1.44.14,4.26.81,4.91,5.11,5.01.32,0,.64.02.96,0,5.09-.36,5.39,1.56,5.27,5.17-.1,3.2-.05,6.4-.17,9.59-.09,2.38-.84,3.2-3.11,3.43-1.75.18-3.51.19-5.27.21-7.03.06-14.07.1-21.1.14-.64,0-1.28.04-1.92,0-3.72-.2-4.88-1.26-4.95-4.95-.11-5.75-.06-11.51-.09-17.27-.06-9.27-.11-18.55-.22-27.82-.05-4.16-.37-8.28-1.51-12.33-3.73-13.25-18.53-14.62-26.25-6.64-3.74,3.86-5.95,8.08-5.85,13.63.19,10.23.02,20.46,0,30.7,0,.16,0,.32,0,.48-.07,3.88-.02,5.72,5.3,5.85,5.64.14,6.17.88,6.27,6.62.04,2.55-.02,5.11-.25,7.65-.2,2.16-1.5,3.48-3.74,3.69-1.75.17-3.5.41-5.25.41-10.71.02-21.43,0-32.14-.05-1.43,0-2.87-.18-4.29-.37-1.46-.19-2.21-1.18-2.48-2.55-.12-.62-.19-1.27-.2-1.9-.02-3.36-.09-6.72,0-10.07.08-2.76,1.12-3.63,3.94-3.57.96.02,1.91.18,2.87.23,3.52.18,4.51-.73,4.68-4.37.05-.96.02-1.92.02-2.88,0-5.6,0-11.19,0-16.79h-.05Z"/>
  <path class="cls-1" d="M655.91,549.62c.4,16.13.38,32.26.45,48.4.02,5.29.32,5.5,5.86,5.28.48-.02.96-.07,1.44-.04,2.36.16,3.57,1.25,3.62,3.59.08,3.99.05,7.99-.05,11.98-.04,1.73-.93,2.54-2.71,2.77-.95.12-1.91.11-2.87.11-8.31-.01-16.62-.04-24.93-.06-.48,0-.96,0-1.44-.01-4.19-.08-4.54-1.68-4.4-4.63.15-3.29-.64-3.74-3.48-2-5.48,3.35-11.25,6.03-17.39,7.94-2.51.78-4.98.97-7.56.57-4.27-.65-8.51-1.38-12.56-2.96-7.88-3.08-13.99-8.23-18.27-15.53-6.61-11.28-9-23.47-7.64-36.41.55-5.25,1.45-10.45,3.44-15.38,5.9-14.58,16.6-23.1,32.2-25.32,10.37-1.48,19.67.86,27.56,7.99.35.32.73.62,1.12.89,1.24.84,2.66.21,2.78-1.29.08-.95-.08-1.92,0-2.87.23-2.61,1.34-3.73,3.99-3.75,3.67-.03,7.35.1,11.02.14,1.92.02,3.84-.1,5.75,0,2.64.14,3.78,1.17,3.99,3.82.18,2.38.06,4.79.07,7.18,0,3.2,0,6.39,0,9.59ZM630.99,574.29c0-2.56.05-5.12-.01-7.67-.07-2.62-.93-5.06-2.38-7.2-3.8-5.62-9.11-8.95-15.89-9.49-8.57-.68-16.48,3.9-20.21,11.88-4.55,9.73-4.31,19.54.7,29.08,2.99,5.69,7.98,9.09,14,10.92,4.3,1.31,8.59.93,12.47-1.52,6.1-3.85,10.05-9.2,11.36-16.43.58-3.21.13-6.38-.04-9.56Z"/>
  <path class="cls-1" d="M236.35,574.4c.06,8.62-2.05,16.79-5.44,24.63-2.66,6.15-6.95,11.07-12.37,14.99-15.16,10.96-39.33,14.11-58.7-.42-9.16-6.88-14.3-16.19-16.34-27.29-1.6-8.76-1.36-17.52.9-26.15,3.17-12.11,10.36-21.12,21.51-26.82,12.04-6.15,24.72-7.56,37.71-3.89,16.91,4.78,26.88,16.42,31.43,33.08,1.06,3.89,1.28,7.88,1.3,11.88ZM168.07,575.27c.19,5.32,1.09,10.47,3.65,15.21,4.29,7.95,13.62,12.06,22.37,9.81,6.99-1.8,11.79-6.21,14.33-12.9,3.32-8.73,3.15-17.53-.39-26.13-3.19-7.75-9.51-11.5-17.59-11.88-7.88-.37-14.33,2.62-18.34,9.82-2.79,5-3.82,10.43-4.03,16.08Z"/>
  <path class="cls-1" d="M826.37,553c0,4,0,8,0,12,0,.96.04,1.93-.07,2.88-.18,1.66-1.1,2.62-2.7,2.91-.47.09-.95.11-1.43.11-4.64,0-9.28.08-13.92-.03-3.42-.08-4.48-1.2-4.75-4.67-.27-3.51-.47-7.02-.67-10.53-.26-4.45-1.32-5.65-5.59-6.26-12.61-1.81-23.73,5.52-26.9,17.87-1.68,6.53-1.48,13.03,1.27,19.26,4.06,9.2,11.2,14.22,21.26,14.62,9.23.36,17.68-2.29,25.27-7.58.92-.64,1.78-1.36,2.75-1.91,1.23-.69,2.59-.22,3.21,1.12.53,1.15.9,2.39,1.3,3.6,1.13,3.5,2.21,7.01,3.36,10.5.86,2.62.78,3.12-1.7,4.69-8.32,5.25-17.17,9.24-26.97,10.8-9.15,1.46-18.19,1-26.98-2.07-14.98-5.24-24.03-15.95-27.8-31.13-2.39-9.62-2.32-19.4.24-28.98,4.52-16.89,15.81-26.97,32.59-31.04,8.19-1.99,16.54-1.59,24.83-.71,5.57.59,11.04,1.82,16.38,3.55,1.06.35,2.12.71,3.17,1.1,2.55.95,3.78,2.81,3.78,5.52,0,1.92.01,3.84.01,5.76,0,2.88,0,5.76,0,8.64h.05Z"/>
  <path class="cls-1" d="M685.21,573.21c0-7.76.03-13.67,0-19.59-.04-5.67-.8-6.37-6.41-6.18-.32.01-.64.04-.96.05-5.94.21-6.51-.33-6.53-6.45,0-2.24-.04-4.48.13-6.71.32-4.02,1.4-5.03,5.36-5.18,1.6-.06,3.2.06,4.79-.01,2.49-.12,3.37-1,3.6-3.54.09-.95.02-1.92.03-2.88.04-4.96.08-9.91.13-14.87,0-.96,0-1.92.11-2.87.21-1.8.99-2.59,2.71-2.79.63-.07,1.28-.06,1.92-.06,5.12-.02,10.23-.04,15.35-.06.32,0,.64-.02.96,0,3.08.14,3.8.89,3.97,4.12.03.64.01,1.28.02,1.92.02,4.96.05,9.91.07,14.87,0,.48-.02.96,0,1.44.17,3.52,1.17,4.62,4.62,4.67,4.63.07,9.27-.02,13.91-.03,1.28,0,2.56-.05,3.83.06,1.67.14,2.62,1.02,2.93,2.65.15.78.18,1.59.18,2.38,0,2.88-.04,5.75-.09,8.63-.07,3.91-.63,4.59-4.36,4.69-4.95.14-9.91.13-14.86.18-.96,0-1.92-.09-2.87,0-2.21.2-3.1,1.13-3.31,3.33-.02.16-.02.32-.02.48.04,11.03.03,22.06.18,33.09.03,2.54.44,5.11,1.02,7.59,1.2,5.19,4.15,7.49,9.5,7.81,2.75.17,5.41-.36,8.07-.94.78-.17,1.51-.52,2.29-.69,2.66-.59,3.86.15,4.49,2.88.4,1.71.63,3.46.93,5.19.43,2.52.97,5.02,1.27,7.56.34,2.96-.32,4.26-3,5.28-8.9,3.4-17.96,5.72-27.63,3.79-3.4-.68-6.28-2.11-8.82-4.49-8.25-7.72-12.5-17.23-12.95-28.46-.25-6.23-.39-12.46-.52-16.85Z"/>
  <path class="cls-1" d="M123.89,547.61c0,5.28,0,10.56,0,15.84-.01,7.52-.03,15.04-.06,22.56-.02,6.48-1.33,12.7-3.87,18.66-4.14,9.72-11.27,15.58-21.78,17.49-10.55,1.91-20.69.61-30.62-3.12-.89-.33-1.76-.78-2.55-1.31-.96-.65-1.58-1.59-1.66-2.79-.05-.64-.11-1.29-.04-1.91.57-4.92,1.09-9.85,1.78-14.76.35-2.51,1.17-2.94,3.65-1.88,3.57,1.52,7.34,2.23,11.1,2.92,8.67,1.59,15.57-3.12,17.14-11.84.54-2.98.83-6.04.84-9.07.08-17.12.03-34.24.03-51.36,0-.64,0-1.29-.08-1.92-.27-1.94-1.2-2.86-3.16-2.88-2.72-.03-5.44.1-8.16.13-1.6.02-3.2.05-4.8-.03-3.12-.16-3.81-.86-3.92-4.15-.08-2.4-.02-4.8-.03-7.2,0-1.92-.07-3.84,0-5.76.11-3.14.82-3.79,4.1-3.95.64-.03,1.28-.01,1.92-.01,11.52-.03,23.04-.07,34.56-.1,5.43-.01,5.76.27,5.77,5.64.03,13.6.01,27.19.01,40.79-.06,0-.11,0-.17,0Z"/>
</svg>