<?xml version="1.0" encoding="utf-8"?>
<!-- Generator: Adobe Illustrator 28.1.0, SVG Export Plug-In . SVG Version: 6.00 Build 0)  -->
<svg version="1.1" id="Layer_1" xmlns="http://www.w3.org/2000/svg" xmlns:xlink="http://www.w3.org/1999/xlink" x="0px" y="0px"
	 viewBox="0 0 1080 1080" style="enable-background:new 0 0 1080 1080;" xml:space="preserve">
<style type="text/css">
	.st0{fill:#E83D35;}
</style>
<path class="st0" d="M743.03,718.22c-1.92,0-3.84,0-5.76,0c-61.6,0-123.19,0-184.79,0c-16,0-32,0.01-48-0.01
	c-6.6-0.01-6.8-0.18-6.78-6.67c0.07-24,0.17-48,0.27-71.99c0-0.79,0.07-1.59,0.23-2.37c0.13-0.63,0.5-1.23,1.2-1.37
	c2.5-0.5,4.99-1.17,7.57-0.48c2.08,0.56,2.69,1.2,2.72,3.31c0.04,3.36-0.01,6.72-0.01,10.08c-0.02,16.8-0.05,33.6-0.07,50.4
	c0,1.28-0.05,2.57,0.07,3.84c0.22,2.36,1.24,3.39,3.69,3.58c1.75,0.14,3.52,0.08,5.28,0.08c107.68-0.07,215.35-0.16,323.03-0.21
	c41.6-0.02,83.2,0.06,124.8,0.08c2.08,0,4.17,0.01,6.22-0.28c2.67-0.37,3.62-1.4,3.89-4.06c0.23-2.22,0.26-4.47,0.26-6.71
	c-0.02-19.04-0.1-38.08-0.1-57.12c-0.02-59.04-0.02-118.08,0.01-177.11c0.01-14.24,0.18-28.48,0.26-42.71
	c0.01-1.43-0.02-2.88-0.22-4.3c-0.21-1.5-1.08-2.28-2.55-2.42c-1.27-0.13-2.56-0.11-3.83-0.11c-116.64,0.03-233.27,0.07-349.91,0.11
	c-33.76,0.01-67.52,0.03-101.28,0.04c-1.6,0-3.21-0.05-4.8,0.08c-3.46,0.29-4.53,1.36-4.76,4.75c-0.1,1.43-0.06,2.88-0.06,4.32
	c-0.02,18.24-0.02,36.48-0.05,54.72c0,1.59-0.05,3.2-0.3,4.77c-0.22,1.36-1.17,2.24-2.59,2.49c-2.24,0.38-4.47,0.22-6.67-0.26
	c-1.03-0.22-1.65-1-1.79-2.02c-0.19-1.42-0.37-2.86-0.37-4.29c0.02-22.88,0.06-45.76,0.11-68.64c0-1.44,0.04-2.88,0.18-4.31
	c0.22-2.15,0.9-2.86,2.96-3.05c1.43-0.13,2.88-0.11,4.32-0.11c8,0.01,16,0.03,24,0.05c0.8,0,1.6,0.04,2.4,0.02
	c3.71-0.09,4.44-0.72,4.49-4.56c0.1-8.8,0.09-17.6,0.12-26.4c0.01-1.44-0.03-2.89,0.09-4.32c0.18-2.09,0.96-2.88,2.95-3.08
	c0.95-0.09,1.92-0.07,2.88-0.07c44.8,0,89.6,0,134.4,0.01c56.32,0.01,112.64,0.04,168.95,0.04c27.84,0,55.68-0.03,83.52-0.11
	c29.92-0.08,59.84-0.24,89.75-0.35c1.76-0.01,3.53,0,5.27,0.2c1.97,0.23,2.76,1.12,2.97,3.15c0.15,1.43,0.14,2.87,0.14,4.31
	c-0.01,11.36-0.04,22.72-0.04,34.08c0.01,56.16,0.02,112.32,0.05,168.47c0.01,27.04,0.04,54.08,0.08,81.12
	c0.01,6.08,0.14,12.16,0.21,18.24c0.01,0.64,0.06,1.28,0.07,1.92c0.04,5.32-0.74,6.09-6.08,6.08c-8.8-0.02-17.6-0.04-26.4-0.05
	c-5.74,0-6.16,0.46-6.13,6.36c0.04,8.96,0.05,17.92,0.08,26.87c0,0.32,0.02,0.64,0.01,0.96c-0.14,4.14-0.89,4.95-5.21,4.97
	c-8.64,0.05-17.28-0.02-25.92-0.02c-70.08-0.05-140.16-0.09-210.23-0.14c-1.6,0-3.2,0-4.79,0
	C743.03,718.1,743.03,718.16,743.03,718.22z M781.45,372.89c0-0.06,0-0.13,0-0.19c-1.6,0-3.2,0-4.8,0
	c-41.11-0.02-82.22-0.04-123.34-0.07c-32.95-0.03-65.91-0.07-98.86-0.09c-1.6,0-3.2,0.03-4.79,0.16c-1.06,0.09-1.77,0.79-1.94,1.83
	c-0.16,0.94-0.15,1.91-0.14,2.86c0.04,5.6,0.1,11.19,0.17,16.79c0.01,0.96,0.02,1.92,0.09,2.87c0.12,1.66,1.12,2.65,2.66,2.98
	c1.08,0.24,2.22,0.23,3.34,0.24c3.04,0.01,6.08-0.04,9.12-0.04c41.75,0,83.5,0,125.26,0c47.03,0,94.06,0.01,141.09-0.01
	c51.03-0.02,102.06-0.07,153.09-0.1c1.28,0,2.56,0.03,3.83,0.2c1.51,0.2,2.33,0.99,2.49,2.48c0.18,1.74,0.19,3.51,0.19,5.27
	c0.05,30.87,0.09,61.75,0.13,92.62c0.06,42.87,0.14,85.74,0.19,128.61c0.01,10.4-0.08,20.79-0.1,31.19c0,1.44,0.01,2.89,0.2,4.31
	c0.29,2.15,1.33,3.27,3.43,3.31c6.56,0.12,13.11,0.08,19.67,0.11c0.16,0,0.32-0.02,0.48-0.04c1.41-0.23,2.41-1.02,2.58-2.43
	c0.19-1.58,0.2-3.19,0.19-4.78c-0.24-45.11-0.54-90.22-0.74-135.33c-0.22-48.15,0.42-96.3,0.77-144.44
	c0.01-1.92,0.05-3.84-0.06-5.76c-0.09-1.51-0.89-2.31-2.4-2.52c-0.94-0.13-1.91-0.13-2.87-0.13c-3.84,0.02-7.68,0.11-11.52,0.11
	c-70.39,0.01-140.77,0.01-211.16,0.01C785.6,372.89,783.52,372.89,781.45,372.89z"/>
<path class="st0" d="M517.29,529.81c-1.97,1.48-2.27,3.1-2.79,4.57c-7.65,21.53-15.27,43.08-22.91,64.62
	c-0.48,1.35-0.93,2.73-1.55,4.02c-0.91,1.88-2.46,2.94-4.59,2.91c-4.96-0.06-9.91-0.15-14.86-0.27c-1.94-0.04-3.35-1.03-4.18-2.74
	c-0.63-1.29-1.15-2.63-1.64-3.98c-5.74-15.94-11.49-31.87-17.17-47.83c-2.2-6.17-5.01-12.11-6.7-18.46
	c-0.12-0.44-0.4-0.87-0.71-1.21c-0.17-0.18-0.55-0.2-0.84-0.24c-0.4-0.06-0.61,0.15-0.64,0.56c-0.07,1.11-0.21,2.22-0.21,3.33
	c0,19.83,0,39.66,0.04,59.49c0.01,5.95,0.08,5.95,6.08,6.21c0.48,0.02,0.96,0.03,1.43,0.1c1.83,0.28,2.99,1.28,3.03,3.14
	c0.1,4.79,0.06,9.59-0.04,14.39c-0.04,1.79-0.92,2.56-2.69,2.78c-0.95,0.11-1.91,0.13-2.87,0.13c-12.47,0.1-24.95,0.18-37.42,0.27
	c-0.48,0-0.96,0.04-1.44,0c-2.58-0.21-3.46-0.97-3.49-3.56c-0.07-4.64,0.04-9.27,0.08-13.91c0-0.16,0.01-0.32,0.03-0.48
	c0.23-1.89,0.84-2.59,2.66-2.79c1.59-0.17,3.2-0.11,4.78-0.33c2.26-0.31,3.03-1.18,3.25-3.44c0.11-1.11,0.07-2.24,0.08-3.36
	c0.13-14.07,0.3-28.15,0.36-42.22c0.03-7.84-0.14-15.67-0.22-23.51c-0.01-0.64-0.01-1.28-0.06-1.92c-0.25-3.05-1.1-3.8-4.29-3.78
	c-1.28,0.01-2.56,0.17-3.83,0.1c-1.54-0.08-2.31-0.84-2.56-2.35c-0.13-0.79-0.2-1.59-0.2-2.39c-0.01-4-0.07-8,0.04-11.99
	c0.09-3.38,0.92-4.11,4.36-4.3c0.64-0.03,1.28-0.01,1.92-0.02c12.95-0.08,25.91-0.18,38.86-0.25c5.12-0.03,5.16-0.03,6.91,4.75
	c7.34,19.95,14.65,39.91,21.98,59.86c0.61,1.65,1.3,3.26,2,4.87c0.24,0.56,1.17,0.56,1.63,0.12c0.96-0.94,1.35-2.16,1.78-3.36
	c5.73-15.94,11.44-31.88,17.16-47.83c1.4-3.91,2.82-7.82,4.24-11.72c0.33-0.9,0.66-1.8,1.02-2.69c1.01-2.46,2.81-3.81,5.52-3.85
	c0.96-0.01,1.92-0.02,2.88-0.02c12.15-0.02,24.31-0.05,36.46-0.07c0.8,0,1.6-0.03,2.4-0.01c4.49,0.1,5.44,1.04,5.32,5.36
	c-0.11,3.68-0.2,7.35-0.4,11.02c-0.17,3.08-1,3.92-4.03,4.28c-1.43,0.17-2.88,0.12-4.3,0.33c-1.68,0.25-2.53,1.13-2.76,2.83
	c-0.17,1.26-0.18,2.55-0.19,3.83c-0.01,21.91-0.02,43.82-0.01,65.73c0,5.66,0.48,6.09,6.38,6.32c0.64,0.03,1.28,0.02,1.92,0.09
	c1.84,0.22,2.49,0.82,2.82,2.68c0.14,0.78,0.21,1.59,0.23,2.38c0.12,4,0.27,7.99,0.28,11.99c0.01,2.46-1,3.47-3.43,3.7
	c-0.95,0.09-1.92,0.03-2.88,0.02c-11.67-0.07-23.35-0.13-35.02-0.22c-1.43-0.01-2.88-0.05-4.3-0.27c-1.64-0.25-2.49-1.23-2.76-2.88
	c-0.1-0.63-0.1-1.27-0.1-1.91c0.01-3.68-0.02-7.36,0.06-11.03c0.07-3.65,1-4.56,4.53-4.62c1.12-0.02,2.24,0.08,3.35,0
	c1.56-0.12,2.31-0.89,2.45-2.41c0.07-0.79,0.05-1.6,0.05-2.4c-0.02-21.27-0.04-42.54-0.07-63.81
	C517.49,531.57,517.39,530.96,517.29,529.81z"/>
<path class="st0" d="M252.48,557.76c0-13.43,0-26.86,0-40.29c0-0.64,0.03-1.28-0.02-1.92c-0.21-2.59-0.98-3.2-3.74-3.08
	c-1.75,0.08-3.51,0.2-5.25,0.14c-1.26-0.05-1.98-0.94-2.26-2.14c-0.11-0.46-0.14-0.95-0.14-1.43c0.02-3.52-0.01-7.04,0.1-10.55
	c0.08-2.43,1.11-3.46,3.47-3.76c0.79-0.1,1.6-0.08,2.39-0.08c8.31-0.06,16.63-0.14,24.94-0.18c5.31-0.03,5.59,0.27,5.58,5.76
	c-0.01,10.87-0.06,21.74-0.03,32.61c0,1.32-0.75,3.08,0.99,3.83c1.37,0.58,2.36-0.67,3.37-1.39c10.47-7.41,21.97-9.07,34.26-6.07
	c10.04,2.45,17.8,8.17,22.29,17.46c9.7,20.03,10.07,40.02-1.62,59.54c-6.42,10.73-16.18,16.01-28.45,16.9
	c-7.89,0.57-15.23-1.21-21.94-5.49c-2.29-1.46-4.63-2.84-6.99-4.19c-1.14-0.65-1.87-0.26-1.98,0.97c-0.12,1.27-0.11,2.56-0.29,3.82
	c-0.25,1.76-1.29,2.92-3.04,3.27c-1.09,0.22-2.21,0.36-3.33,0.36c-7.99,0.03-15.99,0.03-23.98,0.01c-0.95,0-1.94-0.05-2.84-0.31
	c-1.68-0.47-2.88-1.61-2.88-3.41c-0.01-3.99,0.04-8,0.31-11.98c0.16-2.3,1.62-3.15,4.09-2.83c1.11,0.15,2.2,0.46,3.31,0.53
	c2.1,0.14,3.34-0.85,3.62-2.95c0.17-1.26,0.11-2.55,0.11-3.83c0.01-13.11,0-26.22,0-39.33
	C252.51,557.76,252.49,557.76,252.48,557.76z M319.79,575.32c0.06-5.19-1.1-10.43-3.75-15.31c-2.41-4.44-6.11-7.31-10.85-8.86
	c-3.38-1.1-6.88-1.41-10.41-1c-9.18,1.07-15.17,6.73-16.66,15.84c-0.93,5.7-0.82,11.48-0.43,17.2c0.38,5.61,2.8,10.44,7.03,14.26
	c2.81,2.53,6.07,4.13,9.85,4.48c8.63,0.81,17.86-4.24,21.84-11.95C318.72,585.5,319.76,580.7,319.79,575.32z"/>
<path class="st0" d="M848.89,579.37c0-5.92-0.27-11.85,0.05-17.75c0.77-14.22,0.03-28.44,0.46-42.66c0.03-1.12,0.08-2.25-0.04-3.35
	c-0.27-2.58-1.16-3.29-3.75-3.16c-1.59,0.08-3.19,0.29-4.78,0.25c-2.09-0.05-3.09-0.84-3.16-2.83c-0.13-4.15-0.11-8.31,0.01-12.46
	c0.05-1.7,1.07-2.49,2.82-2.69c0.63-0.08,1.28-0.07,1.92-0.07c8.95-0.08,17.91-0.19,26.86-0.23c4.12-0.02,4.47,0.27,4.56,4.26
	c0.14,6.23,0.17,12.47,0.18,18.7c0.01,5.59-0.08,11.18-0.11,16.77c0,0.31,0.05,0.63,0.1,0.94c0.12,0.73,1.21,1.43,1.82,1.1
	c0.84-0.44,1.66-0.95,2.42-1.52c10.05-7.58,21.07-8.56,32.73-4.72c8.55,2.82,14.48,8.56,17.93,16.85c1.61,3.85,2.52,7.9,3.16,12.02
	c0.77,4.91,1.02,9.85,1.05,14.82c0.05,7.67,0.14,15.35,0.21,23.02c0,0.48-0.01,0.96,0,1.44c0.14,4.26,0.81,4.91,5.11,5.01
	c0.32,0.01,0.64,0.02,0.96,0c5.09-0.36,5.39,1.56,5.27,5.17c-0.1,3.2-0.05,6.4-0.17,9.59c-0.09,2.38-0.84,3.2-3.11,3.43
	c-1.75,0.18-3.51,0.19-5.27,0.21c-7.03,0.06-14.07,0.1-21.1,0.14c-0.64,0-1.28,0.04-1.92,0c-3.72-0.2-4.88-1.26-4.95-4.95
	c-0.11-5.75-0.06-11.51-0.09-17.27c-0.06-9.27-0.11-18.55-0.22-27.82c-0.05-4.16-0.37-8.28-1.51-12.33
	c-3.73-13.25-18.53-14.62-26.25-6.64c-3.74,3.86-5.95,8.08-5.85,13.63c0.19,10.23,0.02,20.46,0,30.7c0,0.16,0,0.32,0,0.48
	c-0.07,3.88-0.02,5.72,5.3,5.85c5.64,0.14,6.17,0.88,6.27,6.62c0.04,2.55-0.02,5.11-0.25,7.65c-0.2,2.16-1.5,3.48-3.74,3.69
	c-1.75,0.17-3.5,0.41-5.25,0.41c-10.71,0.02-21.43,0-32.14-0.05c-1.43-0.01-2.87-0.18-4.29-0.37c-1.46-0.19-2.21-1.18-2.48-2.55
	c-0.12-0.62-0.19-1.27-0.2-1.9c-0.02-3.36-0.09-6.72,0-10.07c0.08-2.76,1.12-3.63,3.94-3.57c0.96,0.02,1.91,0.18,2.87,0.23
	c3.52,0.18,4.51-0.73,4.68-4.37c0.05-0.96,0.02-1.92,0.02-2.88c0-5.6,0-11.19,0-16.79C848.92,579.37,848.9,579.37,848.89,579.37z"/>
<path class="st0" d="M655.91,549.62c0.4,16.13,0.38,32.26,0.45,48.4c0.02,5.29,0.32,5.5,5.86,5.28c0.48-0.02,0.96-0.07,1.44-0.04
	c2.36,0.16,3.57,1.25,3.62,3.59c0.08,3.99,0.05,7.99-0.05,11.98c-0.04,1.73-0.93,2.54-2.71,2.77c-0.95,0.12-1.91,0.11-2.87,0.11
	c-8.31-0.01-16.62-0.04-24.93-0.06c-0.48,0-0.96,0-1.44-0.01c-4.19-0.08-4.54-1.68-4.4-4.63c0.15-3.29-0.64-3.74-3.48-2
	c-5.48,3.35-11.25,6.03-17.39,7.94c-2.51,0.78-4.98,0.97-7.56,0.57c-4.27-0.65-8.51-1.38-12.56-2.96
	c-7.88-3.08-13.99-8.23-18.27-15.53c-6.61-11.28-9-23.47-7.64-36.41c0.55-5.25,1.45-10.45,3.44-15.38
	c5.9-14.58,16.6-23.1,32.2-25.32c10.37-1.48,19.67,0.86,27.56,7.99c0.35,0.32,0.73,0.62,1.12,0.89c1.24,0.84,2.66,0.21,2.78-1.29
	c0.08-0.95-0.08-1.92,0.01-2.87c0.23-2.61,1.34-3.73,3.99-3.75c3.67-0.03,7.35,0.1,11.02,0.14c1.92,0.02,3.84-0.1,5.75,0
	c2.64,0.14,3.78,1.17,3.99,3.82c0.18,2.38,0.06,4.79,0.07,7.18C655.91,543.23,655.91,546.43,655.91,549.62z M630.99,574.29
	c0-2.56,0.05-5.12-0.01-7.67c-0.07-2.62-0.93-5.06-2.38-7.2c-3.8-5.62-9.11-8.95-15.89-9.49c-8.57-0.68-16.48,3.9-20.21,11.88
	c-4.55,9.73-4.31,19.54,0.7,29.08c2.99,5.69,7.98,9.09,14,10.92c4.3,1.31,8.59,0.93,12.47-1.52c6.1-3.85,10.05-9.2,11.36-16.43
	C631.61,580.64,631.16,577.48,630.99,574.29z"/>
<path class="st0" d="M236.35,574.4c0.06,8.62-2.05,16.79-5.44,24.63c-2.66,6.15-6.95,11.07-12.37,14.99
	c-15.16,10.96-39.33,14.11-58.7-0.42c-9.16-6.88-14.3-16.19-16.34-27.29c-1.6-8.76-1.36-17.52,0.9-26.15
	c3.17-12.11,10.36-21.12,21.51-26.82c12.04-6.15,24.72-7.56,37.71-3.89c16.91,4.78,26.88,16.42,31.43,33.08
	C236.11,566.41,236.33,570.39,236.35,574.4z M168.07,575.27c0.19,5.32,1.09,10.47,3.65,15.21c4.29,7.95,13.62,12.06,22.37,9.81
	c6.99-1.8,11.79-6.21,14.33-12.9c3.32-8.72,3.15-17.53-0.39-26.13c-3.19-7.75-9.51-11.5-17.59-11.88
	c-7.88-0.37-14.33,2.62-18.34,9.82C169.31,564.19,168.28,569.62,168.07,575.27z"/>
<path class="st0" d="M826.37,553c0,4,0,8,0,12c0,0.96,0.04,1.93-0.07,2.88c-0.18,1.66-1.1,2.62-2.7,2.91
	c-0.47,0.09-0.95,0.11-1.43,0.11c-4.64,0-9.28,0.08-13.92-0.03c-3.42-0.08-4.48-1.2-4.75-4.67c-0.27-3.51-0.47-7.02-0.67-10.53
	c-0.26-4.45-1.32-5.65-5.59-6.26c-12.61-1.81-23.73,5.52-26.9,17.87c-1.68,6.53-1.48,13.03,1.27,19.26
	c4.06,9.2,11.2,14.22,21.26,14.62c9.23,0.36,17.68-2.29,25.27-7.58c0.92-0.64,1.78-1.36,2.75-1.91c1.23-0.69,2.59-0.22,3.21,1.12
	c0.53,1.15,0.9,2.39,1.3,3.6c1.13,3.5,2.21,7.01,3.36,10.5c0.86,2.62,0.78,3.12-1.7,4.69c-8.32,5.25-17.17,9.24-26.97,10.8
	c-9.15,1.46-18.19,1-26.98-2.07c-14.98-5.24-24.03-15.95-27.8-31.13c-2.39-9.62-2.32-19.4,0.24-28.98
	c4.52-16.89,15.81-26.97,32.59-31.04c8.19-1.98,16.54-1.59,24.83-0.71c5.57,0.59,11.04,1.82,16.38,3.55
	c1.06,0.35,2.12,0.71,3.17,1.1c2.55,0.95,3.78,2.81,3.78,5.52c0,1.92,0.01,3.84,0.01,5.76c0,2.88,0,5.76,0,8.64
	C826.33,553,826.35,553,826.37,553z"/>
<path class="st0" d="M685.21,573.21c0-7.76,0.03-13.67-0.01-19.59c-0.04-5.67-0.8-6.37-6.41-6.18c-0.32,0.01-0.64,0.04-0.96,0.05
	c-5.94,0.21-6.51-0.33-6.53-6.45c-0.01-2.24-0.04-4.48,0.13-6.71c0.32-4.02,1.4-5.03,5.36-5.18c1.6-0.06,3.2,0.06,4.79-0.01
	c2.49-0.12,3.37-1,3.6-3.54c0.09-0.95,0.02-1.92,0.03-2.88c0.04-4.96,0.08-9.91,0.13-14.87c0.01-0.96,0-1.92,0.11-2.87
	c0.21-1.8,0.99-2.59,2.71-2.79c0.63-0.07,1.28-0.06,1.92-0.06c5.12-0.02,10.23-0.04,15.35-0.06c0.32,0,0.64-0.02,0.96,0
	c3.08,0.14,3.8,0.89,3.97,4.12c0.03,0.64,0.01,1.28,0.02,1.92c0.02,4.96,0.05,9.91,0.07,14.87c0,0.48-0.02,0.96,0,1.44
	c0.17,3.52,1.17,4.62,4.62,4.67c4.63,0.07,9.27-0.02,13.91-0.03c1.28,0,2.56-0.05,3.83,0.06c1.67,0.14,2.62,1.02,2.93,2.65
	c0.15,0.78,0.18,1.59,0.18,2.38c-0.01,2.88-0.04,5.75-0.09,8.63c-0.07,3.91-0.63,4.59-4.36,4.69c-4.95,0.14-9.91,0.13-14.86,0.18
	c-0.96,0.01-1.92-0.09-2.87-0.01c-2.21,0.2-3.1,1.13-3.31,3.33c-0.02,0.16-0.02,0.32-0.02,0.48c0.04,11.03,0.03,22.06,0.18,33.09
	c0.03,2.54,0.44,5.11,1.02,7.59c1.2,5.19,4.15,7.49,9.5,7.81c2.75,0.17,5.41-0.36,8.07-0.94c0.78-0.17,1.51-0.52,2.29-0.69
	c2.66-0.59,3.86,0.15,4.49,2.88c0.4,1.71,0.63,3.46,0.93,5.19c0.43,2.52,0.97,5.02,1.27,7.56c0.34,2.96-0.32,4.26-3,5.28
	c-8.9,3.4-17.96,5.72-27.63,3.79c-3.4-0.68-6.28-2.11-8.82-4.49c-8.25-7.72-12.5-17.23-12.95-28.46
	C685.48,583.83,685.34,577.59,685.21,573.21z"/>
<path class="st0" d="M123.89,547.61c0,5.28,0.01,10.56,0,15.84c-0.01,7.52-0.03,15.04-0.06,22.56c-0.02,6.48-1.33,12.7-3.87,18.66
	c-4.14,9.72-11.27,15.58-21.78,17.49c-10.55,1.91-20.69,0.61-30.62-3.12c-0.89-0.33-1.76-0.78-2.55-1.31
	c-0.96-0.65-1.58-1.59-1.66-2.79c-0.05-0.64-0.11-1.29-0.04-1.91c0.57-4.92,1.09-9.85,1.78-14.76c0.35-2.51,1.17-2.94,3.65-1.88
	c3.57,1.52,7.34,2.23,11.1,2.92c8.67,1.59,15.57-3.12,17.14-11.84c0.54-2.98,0.83-6.04,0.84-9.07c0.08-17.12,0.03-34.24,0.03-51.36
	c0-0.64,0-1.29-0.08-1.92c-0.27-1.94-1.2-2.86-3.16-2.88c-2.72-0.03-5.44,0.1-8.16,0.13c-1.6,0.02-3.2,0.05-4.8-0.03
	c-3.12-0.16-3.81-0.86-3.92-4.15c-0.08-2.4-0.02-4.8-0.03-7.2c0-1.92-0.07-3.84,0-5.76c0.11-3.14,0.82-3.79,4.1-3.95
	c0.64-0.03,1.28-0.01,1.92-0.01c11.52-0.03,23.04-0.07,34.56-0.1c5.43-0.01,5.76,0.27,5.77,5.64c0.03,13.6,0.01,27.19,0.01,40.79
	C124.01,547.61,123.95,547.61,123.89,547.61z"/>
</svg>
